<?xml version="1.0" encoding="iso-8859-1"?>
<!-- Generator: Adobe Illustrator 19.0.0, SVG Export Plug-In . SVG Version: 6.00 Build 0)  -->
<svg version="1.1" id="&#x56FE;&#x5C42;_1" xmlns="http://www.w3.org/2000/svg" xmlns:xlink="http://www.w3.org/1999/xlink" x="0px"
	 y="0px" viewBox="229 -45.524 517.381 190.524" style="enable-background:new 229 -45.524 517.381 190.524;" xml:space="preserve">
<g>
	<path d="M305.393,15.443c3.336-5.643,10.101-9.507,17.909-9.507c2.507,0,4.907,0.402,7.121,1.13
		c2.906-1.978,6.336-3.29,10.048-3.74h-62.472L273.853,30.2h14.121C288.865,21.934,296.318,15.48,305.393,15.443z"/>
	<path d="M349.428,3.325c-6.485,0-12.359,2.61-16.635,6.834c-2.02-0.765-4.208-1.187-6.495-1.187
		c-7.701,0-14.293,4.743-17.019,11.466c-0.499-0.069-1.002-0.117-1.519-0.117c-5.763,0-10.485,4.426-10.969,10.063l-8.349,55.693
		h37.4l7.986-55.879h21.62l4.026-26.874L349.428,3.325L349.428,3.325z"/>
	<g>
		<polygon points="362.413,38.747 366.853,9.084 362.826,9.055 358.928,34.467 337.397,34.51 329.935,86.104 334.026,86.104 
			340.795,38.747 		"/>
	</g>
	<g>
		<path d="M427.67,48.322c5.147,10.367,14.209,17.906,27.911,21.313c-2.465,2.32-5.655,6.887-7.25,9.859
			c-13.194-4.132-21.749-11.744-27.766-22.618c-4.35,9.062-12.614,17.616-28.055,22.908c-1.305-2.61-4.64-7.032-6.887-9.134
			c15.731-5.002,22.836-13.701,26.026-22.328h-23.126V37.448h25.373c0.073-1.45,0.145-2.755,0.145-4.06v-6.669H391.35V15.844h57.778
			v10.874h-23.923v6.814c0,1.232,0,2.538-0.072,3.915h26.75v10.874L427.67,48.322L427.67,48.322z"/>
		<path d="M477.758,45.857c-2.247-2.175-7.177-5.147-11.092-6.887l5.8-7.757c3.842,1.45,8.989,3.987,11.454,6.162L477.758,45.857z
			 M484.5,26.718h9.352v52.994H484.5V57.891c-2.247,7.395-4.93,14.861-7.612,21.676l-9.569-5.292
			c2.682-5.727,6.307-14.789,9.134-23.488l8.047,5.147V26.718z M479.932,26.863c-2.247-2.247-7.322-5.365-11.236-7.177l5.872-7.685
			c3.915,1.522,9.062,4.205,11.599,6.452L479.932,26.863z M493.924,10.769c3.044,3.117,6.742,7.54,8.337,10.802l-7.612,5.654
			c-1.377-3.19-4.857-7.974-7.829-11.381L493.924,10.769z M522.487,69.345h-26.678v-8.989h8.844v-7.177h-7.177v-8.772h7.177v-6.234
			h-8.119v-8.917h25.228v8.917h-7.685v6.234h6.452v8.772h-6.452v7.177h8.409v8.989H522.487z M533.578,68.693
			c0,5.292-0.942,8.047-3.987,9.642c-2.972,1.668-7.25,1.885-13.556,1.885c-0.363-2.827-1.812-7.54-3.118-10.149
			c3.697,0.29,8.265,0.29,9.642,0.218c1.305,0,1.74-0.435,1.74-1.74V24.036h-20.588v-9.714h29.868L533.578,68.693L533.578,68.693z"
			/>
		<path d="M586.058,22.659h-37.262v-8.772h37.262V22.659z M584.391,70.65c0,3.552-0.508,5.727-2.683,7.032
			c-2.102,1.232-4.785,1.378-8.264,1.378c-0.218-2.32-1.16-5.583-2.102-7.757c1.522,0.073,3.335,0.073,3.915,0.073
			c0.58,0,0.797-0.218,0.797-0.87V50.207h-18.196v30.085h-7.902V42.595h34.435V70.65L584.391,70.65z M552.348,40.855V24.399h30.375
			v16.456H552.348z M563.658,51.222c1.377,2.102,2.682,5.002,3.19,6.887l-5.509,2.103c-0.435-1.958-1.668-4.93-2.9-7.177
			L563.658,51.222z M570.473,66.373v11.164h-7.25V66.373h-3.987v-6.162h7.032c1.305-2.9,2.755-6.742,3.48-9.497l6.234,2.393
			c-1.232,2.32-2.537,4.857-3.697,7.104h2.32v6.162H570.473z M561.12,33.968h12.251v-2.682H561.12V33.968z M609.692,80.219
			c-0.146-1.595-0.436-3.479-0.798-5.582c-7.467,1.522-15.079,2.9-21.241,3.987l-2.03-9.424c2.9-0.363,6.379-0.797,10.15-1.377
			V56.151h-9.28V24.833h9.28V12.799h9.061v12.034h9.424V56.15h-9.496v10.367l2.465-0.435c-0.508-2.175-0.942-4.35-1.45-6.307
			l6.959-1.45c1.74,6.452,3.697,15.007,4.423,20.009L609.692,80.219z M593.743,47.234h2.899V33.678h-2.899V47.234z M606.647,33.678
			h-2.755v13.557h2.755V33.678z"/>
		<path d="M648.181,64.778c0.942,0.652,2.029,1.377,3.334,2.103c4.64,2.755,11.31,3.117,19.139,3.117
			c7.467,0,20.227-0.725,27.838-1.885c-1.087,2.61-2.609,7.395-2.755,10.004c-5.944,0.363-17.689,0.798-25.445,0.798
			c-9.061,0-14.934-0.798-19.935-3.552c-2.973-1.667-5.22-3.77-6.742-3.77c-2.175,0-5.654,4.495-8.482,8.627l-6.307-8.989
			c2.973-2.827,6.234-5.22,9.279-6.669V49.191h-8.555v-9.714h18.632L648.181,64.778L648.181,64.778z M643.034,32.735
			c-2.683-3.407-8.627-8.699-12.904-12.469l7.104-6.379c4.205,3.335,10.439,8.337,13.339,11.599L643.034,32.735z M663.477,67.17
			h-9.859V29.618h12.976c-2.755-1.232-5.51-2.465-7.975-3.407l5.945-4.857h-9.933v-7.829h32.188l2.03-0.507l6.162,5.002
			c-3.479,3.334-7.829,6.887-12.324,9.859c1.088,0.58,2.103,1.087,2.973,1.595l-0.146,0.145h9.787v28.853
			c0,4.06-0.652,6.162-3.263,7.54c-2.465,1.377-5.727,1.45-9.786,1.45c-0.362-2.538-1.45-5.945-2.537-8.192
			c1.667,0.072,3.914,0.072,4.566,0.072c0.798,0,1.016-0.29,1.016-1.015V56.95h-6.308v9.932h-9.352V56.95h-6.162v10.22H663.477z
			 M663.477,37.085v2.538h6.162v-2.538H663.477z M669.639,49.482V46.8h-6.162v2.682H669.639z M667.175,21.354
			c2.175,0.798,4.64,1.74,7.032,2.755c1.305-0.87,2.609-1.812,3.842-2.755H667.175z M685.299,39.623v-2.538h-6.308v2.538H685.299z
			 M685.299,49.482V46.8h-6.308v2.682H685.299z"/>
	</g>
</g>
</svg>
